<mxfile host="app.diagrams.net" modified="2020-10-13T21:04:52.506Z" agent="5.0 (X11)" etag="nt7mUjPiTDVqpq6yFeh0" compressed="false" version="13.7.9" type="github">
  <diagram id="uD6p33Z857GaYZzYAN43" name="Page-1">
    <mxGraphModel dx="701" dy="766" grid="1" gridSize="10" guides="1" tooltips="1" connect="1" arrows="1" fold="1" page="0" pageScale="1" pageWidth="850" pageHeight="1100" math="0" shadow="0">
      <root>
        <mxCell id="0" />
        <mxCell id="1" parent="0" />
        <mxCell id="gU50jgJ4w8s5qQlBn3Q9-7" value="" style="group" vertex="1" connectable="0" parent="1">
          <mxGeometry x="170" y="320" width="110" height="40" as="geometry" />
        </mxCell>
        <mxCell id="gU50jgJ4w8s5qQlBn3Q9-5" value="" style="shape=offPageConnector;whiteSpace=wrap;html=1;rotation=-90;size=0.5;" vertex="1" parent="gU50jgJ4w8s5qQlBn3Q9-7">
          <mxGeometry x="70" width="40" height="40" as="geometry" />
        </mxCell>
        <mxCell id="gU50jgJ4w8s5qQlBn3Q9-6" value="SW[9..0]" style="text;html=1;strokeColor=none;fillColor=none;align=center;verticalAlign=middle;whiteSpace=wrap;rounded=0;" vertex="1" parent="gU50jgJ4w8s5qQlBn3Q9-7">
          <mxGeometry x="10" y="10" width="60" height="20" as="geometry" />
        </mxCell>
        <mxCell id="gU50jgJ4w8s5qQlBn3Q9-10" value="" style="group" vertex="1" connectable="0" parent="1">
          <mxGeometry x="320" y="180" width="40" height="60" as="geometry" />
        </mxCell>
        <mxCell id="gU50jgJ4w8s5qQlBn3Q9-8" value="" style="rounded=0;whiteSpace=wrap;html=1;" vertex="1" parent="gU50jgJ4w8s5qQlBn3Q9-10">
          <mxGeometry y="20" width="40" height="40" as="geometry" />
        </mxCell>
        <mxCell id="gU50jgJ4w8s5qQlBn3Q9-9" value="Debounce" style="text;html=1;strokeColor=none;fillColor=none;align=center;verticalAlign=middle;whiteSpace=wrap;rounded=0;" vertex="1" parent="gU50jgJ4w8s5qQlBn3Q9-10">
          <mxGeometry width="40" height="20" as="geometry" />
        </mxCell>
        <mxCell id="gU50jgJ4w8s5qQlBn3Q9-11" value="" style="group" vertex="1" connectable="0" parent="1">
          <mxGeometry x="320" y="300" width="40" height="60" as="geometry" />
        </mxCell>
        <mxCell id="gU50jgJ4w8s5qQlBn3Q9-12" value="" style="rounded=0;whiteSpace=wrap;html=1;" vertex="1" parent="gU50jgJ4w8s5qQlBn3Q9-11">
          <mxGeometry y="20" width="40" height="40" as="geometry" />
        </mxCell>
        <mxCell id="gU50jgJ4w8s5qQlBn3Q9-13" value="Synchronizer" style="text;html=1;strokeColor=none;fillColor=none;align=center;verticalAlign=middle;whiteSpace=wrap;rounded=0;" vertex="1" parent="gU50jgJ4w8s5qQlBn3Q9-11">
          <mxGeometry width="40" height="20" as="geometry" />
        </mxCell>
        <mxCell id="gU50jgJ4w8s5qQlBn3Q9-17" value="" style="group" vertex="1" connectable="0" parent="1">
          <mxGeometry x="170" y="200" width="110" height="40" as="geometry" />
        </mxCell>
        <mxCell id="gU50jgJ4w8s5qQlBn3Q9-18" value="" style="shape=offPageConnector;whiteSpace=wrap;html=1;rotation=-90;size=0.5;" vertex="1" parent="gU50jgJ4w8s5qQlBn3Q9-17">
          <mxGeometry x="70" width="40" height="40" as="geometry" />
        </mxCell>
        <mxCell id="gU50jgJ4w8s5qQlBn3Q9-19" value="KEY[0]" style="text;html=1;strokeColor=none;fillColor=none;align=center;verticalAlign=middle;whiteSpace=wrap;rounded=0;" vertex="1" parent="gU50jgJ4w8s5qQlBn3Q9-17">
          <mxGeometry x="10" y="10" width="60" height="20" as="geometry" />
        </mxCell>
        <mxCell id="gU50jgJ4w8s5qQlBn3Q9-26" value="" style="group" vertex="1" connectable="0" parent="gU50jgJ4w8s5qQlBn3Q9-17">
          <mxGeometry y="-80" width="110" height="40" as="geometry" />
        </mxCell>
        <mxCell id="gU50jgJ4w8s5qQlBn3Q9-27" value="" style="shape=offPageConnector;whiteSpace=wrap;html=1;rotation=-90;size=0.5;" vertex="1" parent="gU50jgJ4w8s5qQlBn3Q9-26">
          <mxGeometry x="70" width="40" height="40" as="geometry" />
        </mxCell>
        <mxCell id="gU50jgJ4w8s5qQlBn3Q9-28" value="reset_n" style="text;html=1;strokeColor=none;fillColor=none;align=center;verticalAlign=middle;whiteSpace=wrap;rounded=0;" vertex="1" parent="gU50jgJ4w8s5qQlBn3Q9-26">
          <mxGeometry x="10" y="10" width="60" height="20" as="geometry" />
        </mxCell>
        <mxCell id="gU50jgJ4w8s5qQlBn3Q9-35" value="" style="group" vertex="1" connectable="0" parent="1">
          <mxGeometry x="170" y="40" width="110" height="40" as="geometry" />
        </mxCell>
        <mxCell id="gU50jgJ4w8s5qQlBn3Q9-36" value="" style="shape=offPageConnector;whiteSpace=wrap;html=1;rotation=-90;size=0.5;" vertex="1" parent="gU50jgJ4w8s5qQlBn3Q9-35">
          <mxGeometry x="70" width="40" height="40" as="geometry" />
        </mxCell>
        <mxCell id="gU50jgJ4w8s5qQlBn3Q9-37" value="clk" style="text;html=1;strokeColor=none;fillColor=none;align=center;verticalAlign=middle;whiteSpace=wrap;rounded=0;" vertex="1" parent="gU50jgJ4w8s5qQlBn3Q9-35">
          <mxGeometry x="10" y="10" width="60" height="20" as="geometry" />
        </mxCell>
        <mxCell id="gU50jgJ4w8s5qQlBn3Q9-44" style="edgeStyle=orthogonalEdgeStyle;rounded=0;orthogonalLoop=1;jettySize=auto;html=1;exitX=1;exitY=0.5;exitDx=0;exitDy=0;entryX=0.75;entryY=1;entryDx=0;entryDy=0;" edge="1" parent="1" source="gU50jgJ4w8s5qQlBn3Q9-24" target="gU50jgJ4w8s5qQlBn3Q9-43">
          <mxGeometry relative="1" as="geometry" />
        </mxCell>
        <mxCell id="gU50jgJ4w8s5qQlBn3Q9-60" value="bcd[15...0]" style="edgeLabel;html=1;align=center;verticalAlign=middle;resizable=0;points=[];" vertex="1" connectable="0" parent="gU50jgJ4w8s5qQlBn3Q9-44">
          <mxGeometry x="-0.6333" y="1" relative="1" as="geometry">
            <mxPoint as="offset" />
          </mxGeometry>
        </mxCell>
        <mxCell id="gU50jgJ4w8s5qQlBn3Q9-24" value="" style="rounded=0;whiteSpace=wrap;html=1;" vertex="1" parent="1">
          <mxGeometry x="620" y="440" width="40" height="80" as="geometry" />
        </mxCell>
        <mxCell id="gU50jgJ4w8s5qQlBn3Q9-25" value="Binary BCD" style="text;html=1;strokeColor=none;fillColor=none;align=center;verticalAlign=middle;whiteSpace=wrap;rounded=0;" vertex="1" parent="1">
          <mxGeometry x="600" y="420" width="80" height="20" as="geometry" />
        </mxCell>
        <mxCell id="gU50jgJ4w8s5qQlBn3Q9-38" value="in" style="edgeStyle=orthogonalEdgeStyle;rounded=0;orthogonalLoop=1;jettySize=auto;html=1;exitX=0.5;exitY=1;exitDx=0;exitDy=0;entryX=0;entryY=0.5;entryDx=0;entryDy=0;" edge="1" parent="1" source="gU50jgJ4w8s5qQlBn3Q9-5" target="gU50jgJ4w8s5qQlBn3Q9-12">
          <mxGeometry relative="1" as="geometry" />
        </mxCell>
        <mxCell id="gU50jgJ4w8s5qQlBn3Q9-39" style="edgeStyle=orthogonalEdgeStyle;rounded=0;orthogonalLoop=1;jettySize=auto;html=1;exitX=0.5;exitY=1;exitDx=0;exitDy=0;entryX=0;entryY=0.5;entryDx=0;entryDy=0;" edge="1" parent="1" source="gU50jgJ4w8s5qQlBn3Q9-18" target="gU50jgJ4w8s5qQlBn3Q9-8">
          <mxGeometry relative="1" as="geometry" />
        </mxCell>
        <mxCell id="gU50jgJ4w8s5qQlBn3Q9-40" style="edgeStyle=orthogonalEdgeStyle;rounded=0;orthogonalLoop=1;jettySize=auto;html=1;exitX=1;exitY=0.5;exitDx=0;exitDy=0;entryX=0;entryY=0.75;entryDx=0;entryDy=0;" edge="1" parent="1" source="gU50jgJ4w8s5qQlBn3Q9-12" target="gU50jgJ4w8s5qQlBn3Q9-24">
          <mxGeometry relative="1" as="geometry">
            <mxPoint x="300" y="490" as="targetPoint" />
            <Array as="points">
              <mxPoint x="440" y="340" />
              <mxPoint x="440" y="500" />
            </Array>
          </mxGeometry>
        </mxCell>
        <mxCell id="gU50jgJ4w8s5qQlBn3Q9-72" value="&lt;div&gt;binary[12...0] = sync_out[9...0]&lt;/div&gt;&lt;div&gt;OR 12h&#39;000&lt;br&gt;&lt;/div&gt;" style="edgeLabel;html=1;align=center;verticalAlign=middle;resizable=0;points=[];" vertex="1" connectable="0" parent="gU50jgJ4w8s5qQlBn3Q9-40">
          <mxGeometry x="0.8714" y="-2" relative="1" as="geometry">
            <mxPoint x="-63" y="-2" as="offset" />
          </mxGeometry>
        </mxCell>
        <mxCell id="gU50jgJ4w8s5qQlBn3Q9-41" style="edgeStyle=orthogonalEdgeStyle;rounded=0;orthogonalLoop=1;jettySize=auto;html=1;exitX=0.5;exitY=1;exitDx=0;exitDy=0;entryX=0;entryY=0.5;entryDx=0;entryDy=0;" edge="1" parent="1" source="gU50jgJ4w8s5qQlBn3Q9-27" target="gU50jgJ4w8s5qQlBn3Q9-24">
          <mxGeometry relative="1" as="geometry">
            <mxPoint x="430" y="460" as="targetPoint" />
            <Array as="points">
              <mxPoint x="480" y="140" />
              <mxPoint x="480" y="480" />
            </Array>
          </mxGeometry>
        </mxCell>
        <mxCell id="gU50jgJ4w8s5qQlBn3Q9-73" value="reset_n" style="edgeLabel;html=1;align=center;verticalAlign=middle;resizable=0;points=[];" vertex="1" connectable="0" parent="gU50jgJ4w8s5qQlBn3Q9-41">
          <mxGeometry x="0.85" y="2" relative="1" as="geometry">
            <mxPoint as="offset" />
          </mxGeometry>
        </mxCell>
        <mxCell id="gU50jgJ4w8s5qQlBn3Q9-42" style="edgeStyle=orthogonalEdgeStyle;rounded=0;orthogonalLoop=1;jettySize=auto;html=1;exitX=0.5;exitY=1;exitDx=0;exitDy=0;entryX=0;entryY=0.25;entryDx=0;entryDy=0;" edge="1" parent="1" source="gU50jgJ4w8s5qQlBn3Q9-36" target="gU50jgJ4w8s5qQlBn3Q9-24">
          <mxGeometry relative="1" as="geometry">
            <Array as="points">
              <mxPoint x="500" y="60" />
              <mxPoint x="500" y="460" />
            </Array>
          </mxGeometry>
        </mxCell>
        <mxCell id="gU50jgJ4w8s5qQlBn3Q9-74" value="clk" style="edgeLabel;html=1;align=center;verticalAlign=middle;resizable=0;points=[];" vertex="1" connectable="0" parent="gU50jgJ4w8s5qQlBn3Q9-42">
          <mxGeometry x="0.8703" y="1" relative="1" as="geometry">
            <mxPoint as="offset" />
          </mxGeometry>
        </mxCell>
        <mxCell id="gU50jgJ4w8s5qQlBn3Q9-46" style="edgeStyle=orthogonalEdgeStyle;rounded=0;orthogonalLoop=1;jettySize=auto;html=1;exitX=1;exitY=0.5;exitDx=0;exitDy=0;entryX=0.25;entryY=1;entryDx=0;entryDy=0;" edge="1" parent="1" source="gU50jgJ4w8s5qQlBn3Q9-12" target="gU50jgJ4w8s5qQlBn3Q9-43">
          <mxGeometry relative="1" as="geometry" />
        </mxCell>
        <mxCell id="gU50jgJ4w8s5qQlBn3Q9-51" value="&lt;div&gt;in1[15...0] = sync_out[9...0]&lt;/div&gt;&lt;div&gt;OR 16&#39;h0000&lt;br&gt;&lt;/div&gt;" style="edgeLabel;html=1;align=center;verticalAlign=middle;resizable=0;points=[];" vertex="1" connectable="0" parent="gU50jgJ4w8s5qQlBn3Q9-46">
          <mxGeometry x="0.4077" relative="1" as="geometry">
            <mxPoint x="-17" as="offset" />
          </mxGeometry>
        </mxCell>
        <mxCell id="gU50jgJ4w8s5qQlBn3Q9-48" style="edgeStyle=orthogonalEdgeStyle;rounded=0;orthogonalLoop=1;jettySize=auto;html=1;exitX=1;exitY=0.5;exitDx=0;exitDy=0;entryX=0;entryY=0.5;entryDx=0;entryDy=0;" edge="1" parent="1" source="gU50jgJ4w8s5qQlBn3Q9-12" target="gU50jgJ4w8s5qQlBn3Q9-43">
          <mxGeometry relative="1" as="geometry">
            <Array as="points">
              <mxPoint x="520" y="340" />
              <mxPoint x="520" y="280" />
              <mxPoint x="820" y="280" />
            </Array>
          </mxGeometry>
        </mxCell>
        <mxCell id="gU50jgJ4w8s5qQlBn3Q9-50" value="s = sync_out[9]" style="edgeLabel;html=1;align=center;verticalAlign=middle;resizable=0;points=[];" vertex="1" connectable="0" parent="gU50jgJ4w8s5qQlBn3Q9-48">
          <mxGeometry x="0.1926" relative="1" as="geometry">
            <mxPoint x="180" y="20" as="offset" />
          </mxGeometry>
        </mxCell>
        <mxCell id="gU50jgJ4w8s5qQlBn3Q9-54" value="sync_out[9...0]" style="edgeLabel;html=1;align=center;verticalAlign=middle;resizable=0;points=[];" vertex="1" connectable="0" parent="gU50jgJ4w8s5qQlBn3Q9-48">
          <mxGeometry x="-0.9587" y="2" relative="1" as="geometry">
            <mxPoint x="24" as="offset" />
          </mxGeometry>
        </mxCell>
        <mxCell id="gU50jgJ4w8s5qQlBn3Q9-53" value="" style="group" vertex="1" connectable="0" parent="1">
          <mxGeometry x="780" y="320" width="80" height="100" as="geometry" />
        </mxCell>
        <mxCell id="gU50jgJ4w8s5qQlBn3Q9-43" value="" style="shape=trapezoid;perimeter=trapezoidPerimeter;whiteSpace=wrap;html=1;fixedSize=1;rotation=90;" vertex="1" parent="gU50jgJ4w8s5qQlBn3Q9-53">
          <mxGeometry y="20" width="80" height="40" as="geometry" />
        </mxCell>
        <mxCell id="gU50jgJ4w8s5qQlBn3Q9-49" value="16b 2-1 Mux" style="text;html=1;strokeColor=none;fillColor=none;align=center;verticalAlign=middle;whiteSpace=wrap;rounded=0;" vertex="1" parent="gU50jgJ4w8s5qQlBn3Q9-53">
          <mxGeometry y="80" width="80" height="20" as="geometry" />
        </mxCell>
        <mxCell id="gU50jgJ4w8s5qQlBn3Q9-71" value="" style="group" vertex="1" connectable="0" parent="1">
          <mxGeometry x="860" y="360" width="270" height="280" as="geometry" />
        </mxCell>
        <mxCell id="gU50jgJ4w8s5qQlBn3Q9-58" value="" style="group" vertex="1" connectable="0" parent="gU50jgJ4w8s5qQlBn3Q9-71">
          <mxGeometry x="170" y="60" width="100" height="220" as="geometry" />
        </mxCell>
        <mxCell id="gU50jgJ4w8s5qQlBn3Q9-55" value="" style="rounded=0;whiteSpace=wrap;html=1;" vertex="1" parent="gU50jgJ4w8s5qQlBn3Q9-58">
          <mxGeometry x="30" y="20" width="40" height="200" as="geometry" />
        </mxCell>
        <mxCell id="gU50jgJ4w8s5qQlBn3Q9-57" value="Seven Segment" style="text;html=1;strokeColor=none;fillColor=none;align=center;verticalAlign=middle;whiteSpace=wrap;rounded=0;" vertex="1" parent="gU50jgJ4w8s5qQlBn3Q9-58">
          <mxGeometry width="100" height="20" as="geometry" />
        </mxCell>
        <mxCell id="gU50jgJ4w8s5qQlBn3Q9-69" value="&lt;div&gt;Num_Hex4[3...0] = 4&#39;h0&lt;br&gt;&lt;/div&gt;" style="endArrow=classic;html=1;" edge="1" parent="gU50jgJ4w8s5qQlBn3Q9-58">
          <mxGeometry width="50" height="50" relative="1" as="geometry">
            <mxPoint x="-110" y="160" as="sourcePoint" />
            <mxPoint x="30" y="160" as="targetPoint" />
            <mxPoint as="offset" />
          </mxGeometry>
        </mxCell>
        <mxCell id="gU50jgJ4w8s5qQlBn3Q9-59" value="Blank[5...0] = 6&#39;h30" style="endArrow=classic;html=1;" edge="1" parent="gU50jgJ4w8s5qQlBn3Q9-71">
          <mxGeometry width="50" height="50" relative="1" as="geometry">
            <mxPoint x="80" y="102" as="sourcePoint" />
            <mxPoint x="200" y="102" as="targetPoint" />
          </mxGeometry>
        </mxCell>
        <mxCell id="gU50jgJ4w8s5qQlBn3Q9-61" value="DP_in[5...0] = 6&#39;h00" style="endArrow=classic;html=1;" edge="1" parent="gU50jgJ4w8s5qQlBn3Q9-71">
          <mxGeometry width="50" height="50" relative="1" as="geometry">
            <mxPoint x="80" y="120" as="sourcePoint" />
            <mxPoint x="200" y="120" as="targetPoint" />
          </mxGeometry>
        </mxCell>
        <mxCell id="gU50jgJ4w8s5qQlBn3Q9-63" style="edgeStyle=orthogonalEdgeStyle;rounded=0;orthogonalLoop=1;jettySize=auto;html=1;exitX=0.5;exitY=0;exitDx=0;exitDy=0;entryX=0;entryY=0.3;entryDx=0;entryDy=0;entryPerimeter=0;" edge="1" parent="gU50jgJ4w8s5qQlBn3Q9-71" source="gU50jgJ4w8s5qQlBn3Q9-43" target="gU50jgJ4w8s5qQlBn3Q9-55">
          <mxGeometry relative="1" as="geometry">
            <mxPoint x="140" y="140" as="targetPoint" />
            <Array as="points">
              <mxPoint />
              <mxPoint y="140" />
            </Array>
          </mxGeometry>
        </mxCell>
        <mxCell id="gU50jgJ4w8s5qQlBn3Q9-64" value="&lt;div&gt;Num_Hex0[3...0] = mux_out[3...0]&lt;/div&gt;" style="edgeLabel;html=1;align=center;verticalAlign=middle;resizable=0;points=[];" vertex="1" connectable="0" parent="gU50jgJ4w8s5qQlBn3Q9-63">
          <mxGeometry x="0.2867" y="4" relative="1" as="geometry">
            <mxPoint x="28" y="4" as="offset" />
          </mxGeometry>
        </mxCell>
        <mxCell id="gU50jgJ4w8s5qQlBn3Q9-65" value="&lt;div&gt;Num_Hex1[3...0] = mux_out[7...4]&lt;/div&gt;" style="edgeStyle=orthogonalEdgeStyle;rounded=0;orthogonalLoop=1;jettySize=auto;html=1;exitX=0.5;exitY=0;exitDx=0;exitDy=0;entryX=0;entryY=0.4;entryDx=0;entryDy=0;entryPerimeter=0;" edge="1" parent="gU50jgJ4w8s5qQlBn3Q9-71" source="gU50jgJ4w8s5qQlBn3Q9-43" target="gU50jgJ4w8s5qQlBn3Q9-55">
          <mxGeometry x="0.4737" relative="1" as="geometry">
            <Array as="points">
              <mxPoint />
              <mxPoint y="160" />
            </Array>
            <mxPoint as="offset" />
          </mxGeometry>
        </mxCell>
        <mxCell id="gU50jgJ4w8s5qQlBn3Q9-66" value="&lt;div&gt;Num_Hex2[3...0] = mux_out[11...8]&lt;/div&gt;" style="edgeStyle=orthogonalEdgeStyle;rounded=0;orthogonalLoop=1;jettySize=auto;html=1;exitX=0.5;exitY=0;exitDx=0;exitDy=0;entryX=0;entryY=0.5;entryDx=0;entryDy=0;" edge="1" parent="gU50jgJ4w8s5qQlBn3Q9-71" source="gU50jgJ4w8s5qQlBn3Q9-43" target="gU50jgJ4w8s5qQlBn3Q9-55">
          <mxGeometry x="0.5" relative="1" as="geometry">
            <Array as="points">
              <mxPoint />
              <mxPoint y="180" />
            </Array>
            <mxPoint as="offset" />
          </mxGeometry>
        </mxCell>
        <mxCell id="gU50jgJ4w8s5qQlBn3Q9-67" value="&lt;div&gt;Num_Hex3[3...0] = mux_out[15...12]&lt;/div&gt;" style="edgeStyle=orthogonalEdgeStyle;rounded=0;orthogonalLoop=1;jettySize=auto;html=1;exitX=0.5;exitY=0;exitDx=0;exitDy=0;entryX=0;entryY=0.6;entryDx=0;entryDy=0;entryPerimeter=0;" edge="1" parent="gU50jgJ4w8s5qQlBn3Q9-71" source="gU50jgJ4w8s5qQlBn3Q9-43" target="gU50jgJ4w8s5qQlBn3Q9-55">
          <mxGeometry x="0.5238" relative="1" as="geometry">
            <mxPoint x="160" y="200" as="targetPoint" />
            <Array as="points">
              <mxPoint />
              <mxPoint y="200" />
            </Array>
            <mxPoint as="offset" />
          </mxGeometry>
        </mxCell>
        <mxCell id="gU50jgJ4w8s5qQlBn3Q9-70" value="&lt;div&gt;Num_Hex5[3...0] = 4&#39;h0&lt;br&gt;&lt;/div&gt;" style="endArrow=classic;html=1;" edge="1" parent="gU50jgJ4w8s5qQlBn3Q9-71">
          <mxGeometry width="50" height="50" relative="1" as="geometry">
            <mxPoint x="60" y="240" as="sourcePoint" />
            <mxPoint x="200" y="240" as="targetPoint" />
            <mxPoint as="offset" />
          </mxGeometry>
        </mxCell>
      </root>
    </mxGraphModel>
  </diagram>
</mxfile>
